<?xml version="1.0" standalone="no"?>
<!DOCTYPE svg PUBLIC "-//W3C//DTD SVG 20010904//EN"
 "http://www.w3.org/TR/2001/REC-SVG-20010904/DTD/svg10.dtd">
<svg version="1.0" xmlns="http://www.w3.org/2000/svg"
 width="700.000000pt" height="700.000000pt" viewBox="0 0 700.000000 700.000000"
 preserveAspectRatio="xMidYMid meet">
<metadata>
Created by potrace 1.14, written by Peter Selinger 2001-2017
</metadata>
<g transform="translate(0.000000,700.000000) scale(0.100000,-0.100000)"
fill="#000000" stroke="none">
<path d="M1918 6986 c-71 -19 -153 -78 -193 -139 -69 -104 -65 -9 -65 -1674
l0 -1502 -707 -3 -708 -3 -50 -27 c-62 -32 -138 -112 -168 -175 l-22 -48 0
-1575 0 -1575 26 -56 c37 -79 90 -133 167 -171 l67 -33 3235 0 3235 0 67 33
c77 38 130 92 167 171 l26 56 0 1575 0 1575 -22 48 c-30 63 -106 143 -168 175
l-50 27 -707 3 -708 3 0 1502 c0 1655 3 1569 -62 1669 -35 56 -87 99 -155 131
l-48 22 -1555 2 c-1235 1 -1565 -1 -1602 -11z m3062 -1821 l0 -1485 -1480 0
-1480 0 0 1485 0 1485 1480 0 1480 0 0 -1485z m-1660 -3330 l0 -1485 -1485 0
-1485 0 0 1485 0 1485 1485 0 1485 0 0 -1485z m3330 0 l0 -1485 -1485 0 -1485
0 0 1485 0 1485 1485 0 1485 0 0 -1485z"/>
<path d="M3400 6204 c-53 -23 -97 -61 -124 -107 -14 -23 -162 -420 -330 -882
-243 -667 -306 -849 -306 -887 0 -170 202 -255 330 -139 46 40 58 68 166 368
l69 193 295 0 295 0 90 -253 c94 -264 117 -307 186 -343 35 -18 130 -18 172 0
71 29 125 127 114 207 -7 56 -613 1703 -642 1748 -28 41 -80 82 -128 100 -41
16 -146 13 -187 -5z m176 -862 l71 -197 -145 -3 c-80 -1 -146 -1 -148 1 -4 4
140 397 146 397 3 0 37 -89 76 -198z"/>
<path d="M1313 2850 c-83 -27 -160 -97 -199 -182 l-29 -63 0 -740 0 -740 26
-56 c37 -79 90 -133 167 -171 l67 -33 380 0 c419 0 436 2 565 62 57 27 93 54
151 113 131 132 186 281 176 475 -8 149 -47 248 -143 361 l-55 65 19 27 c100
141 127 338 72 514 -41 133 -150 262 -273 325 -110 55 -116 56 -502 59 -338 3
-364 2 -422 -16z m734 -387 c19 -9 47 -34 61 -56 23 -34 27 -51 27 -112 0 -61
-4 -77 -27 -113 -50 -75 -58 -77 -360 -80 l-267 -3 -5 23 c-3 13 -7 98 -11
191 l-5 167 276 0 c236 0 281 -2 311 -17z m48 -765 c45 -24 85 -68 106 -113
23 -50 25 -152 4 -203 -20 -48 -80 -109 -119 -122 -26 -8 -429 -29 -568 -30
l-38 0 0 246 0 245 293 -3 c249 -3 296 -5 322 -20z"/>
<path d="M5028 2900 c-465 -85 -760 -522 -735 -1090 16 -351 115 -586 329
-785 82 -76 224 -151 343 -181 99 -26 331 -26 440 0 300 69 507 276 587 588
20 77 21 92 10 135 -26 96 -98 153 -195 154 -83 1 -148 -35 -180 -99 -8 -15
-24 -61 -37 -102 -65 -217 -162 -297 -376 -308 -158 -7 -273 35 -363 134 -120
131 -177 369 -152 630 25 257 119 423 287 505 62 31 78 34 174 37 245 9 377
-79 432 -287 18 -70 29 -92 63 -127 64 -67 146 -78 235 -34 93 47 124 142 90
275 -69 274 -257 462 -535 536 -89 23 -333 35 -417 19z"/>
</g>
</svg>
